<svg xmlns="http://www.w3.org/2000/svg" viewBox="0 0 19.4 25.4"><defs><style>.\35 24d1a46-64ce-49f9-b5e9-ae78932b7d66{fill-rule:evenodd;}</style></defs><title>Asset 2</title><g id="881e57c9-a4db-42c9-a223-e8af413df303" data-name="Layer 2"><g id="8ac28a96-c9af-42fc-aa44-0193d4ac81f8" data-name="Layer 1"><path class="524d1a46-64ce-49f9-b5e9-ae78932b7d66" d="M0,25.4v-13A3.32,3.32,0,0,1,3,9V6.7a6.7,6.7,0,0,1,13.4,0V9a3.32,3.32,0,0,1,3,3.38V22a.37.37,0,0,1,0,.11V25.4ZM18,24V12.2a1.81,1.81,0,0,0-1.8-1.8H3.2a1.81,1.81,0,0,0-1.8,1.8V24ZM15,9V6.7a5.3,5.3,0,0,0-10.6,0V9ZM9.7,20.4a.7.7,0,0,1-.7-.7v-4a.7.7,0,1,1,1.4,0v4A.7.7,0,0,1,9.7,20.4Z"/></g></g></svg>